# xmcd
#
# Track frame offsets: 
#        150
#        20968
#        41599
#        60246
#        86419
#        107766
#        133159
#        154091
#        176162
#        201336
#        222924
#        246693
#        266123
#        286187
#        310548
#
# Disc length: 4422 seconds
#
# Revision: 1
# Processed by: cddbd v1.5.2PL0 Copyright (c) Steve Scherf et al.
# Submitted via: ExactAudioCopyFreeDBPlugin 1.0
#
DISCID=e011440f
DTITLE=群星 - TEST-CD试音极品20CDB
DYEAR=2014
DGENRE=stereo
TTITLE0=雨中飘荡的回忆
TTITLE1=逝去的诺言
TTITLE2=梦中的唐古拉
TTITLE3=城里的月光
TTITLE4=映山红
TTITLE5=如果云知道
TTITLE6=高原红
TTITLE7=一年又一年
TTITLE8=西海情歌
TTITLE9=蓝眼泪
TTITLE10=天路
TTITLE11=总有一天等到你
TTITLE12=船歌
TTITLE13=神奇的九寨
TTITLE14=梦江南
EXTD=
EXTT0=
EXTT1=
EXTT2=
EXTT3=
EXTT4=
EXTT5=
EXTT6=
EXTT7=
EXTT8=
EXTT9=
EXTT10=
EXTT11=
EXTT12=
EXTT13=
EXTT14=
PLAYORDER=
